<svg xmlns="http://www.w3.org/2000/svg" viewBox="0 0 21.42 21.42"><defs><style>.cls-1{fill:#fff;}</style></defs><title>logo-instagram</title><g id="Capa_2" data-name="Capa 2"><g id="Capa_1-2" data-name="Capa 1"><path class="cls-1" d="M10.71,1.93c2.86,0,3.2,0,4.33.06a5.94,5.94,0,0,1,2,.37,3.4,3.4,0,0,1,1.23.8,3.24,3.24,0,0,1,.8,1.23,5.94,5.94,0,0,1,.37,2c.05,1.13.06,1.47.06,4.33s0,3.2-.06,4.33a5.94,5.94,0,0,1-.37,2,3.54,3.54,0,0,1-2,2,5.94,5.94,0,0,1-2,.37c-1.13.05-1.47.06-4.33.06s-3.2,0-4.33-.06a5.94,5.94,0,0,1-2-.37,3.24,3.24,0,0,1-1.23-.8A3.4,3.4,0,0,1,2.36,17,5.94,5.94,0,0,1,2,15c-.05-1.13-.06-1.47-.06-4.33s0-3.2.06-4.33a5.94,5.94,0,0,1,.37-2,3.54,3.54,0,0,1,2-2,5.94,5.94,0,0,1,2-.37c1.13-.05,1.47-.06,4.33-.06m0-1.93C7.8,0,7.44,0,6.3.06a8.19,8.19,0,0,0-2.6.5A5.2,5.2,0,0,0,1.8,1.8,5.2,5.2,0,0,0,.56,3.7a8.19,8.19,0,0,0-.5,2.6C0,7.44,0,7.8,0,10.71S0,14,.06,15.13a8.19,8.19,0,0,0,.5,2.6,5.37,5.37,0,0,0,1.24,1.9,5.17,5.17,0,0,0,1.9,1.23,7.67,7.67,0,0,0,2.6.5c1.14.05,1.5.06,4.41.06s3.28,0,4.42-.06a7.67,7.67,0,0,0,2.6-.5,5.41,5.41,0,0,0,3.13-3.13,7.67,7.67,0,0,0,.5-2.6c.05-1.14.06-1.51.06-4.42s0-3.27-.06-4.41a7.67,7.67,0,0,0-.5-2.6,5.17,5.17,0,0,0-1.23-1.9A5.37,5.37,0,0,0,17.73.56a8.19,8.19,0,0,0-2.6-.5C14,0,13.62,0,10.71,0"/><path class="cls-1" d="M10.71,5.21a5.5,5.5,0,1,0,5.5,5.5,5.5,5.5,0,0,0-5.5-5.5m0,9.07a3.57,3.57,0,1,1,3.57-3.57,3.57,3.57,0,0,1-3.57,3.57"/><path class="cls-1" d="M17.72,5a1.29,1.29,0,1,1-1.29-1.28A1.29,1.29,0,0,1,17.72,5"/></g></g></svg>