<svg xmlns="http://www.w3.org/2000/svg" viewBox="0 0 494.58 171.92"><defs><style>.cls-1{fill:#706f6f;}.cls-2{fill:#c6c6c6;}.cls-3{fill:#878787;}.cls-4{fill:#b51f1f;}.cls-5{fill:#5e6c21;}.cls-6{fill:#fff;}.cls-7{fill:#737371;}.cls-8{fill:#8c8a8a;}.cls-9{fill:#4c4549;}.cls-10{fill:#352e33;}.cls-11{fill:#c9252a;}.cls-12{fill:#a3a3a3;}.cls-13{fill:#829b29;}</style></defs><title>logo-fondo-negro-color</title><g id="Capa_2" data-name="Capa 2"><g id="Capa_2-2" data-name="Capa 2"><rect class="cls-1" x="438.85" y="8.07" width="9.91" height="6.01" transform="translate(887.61 22.14) rotate(-180)"/><polygon class="cls-2" points="436.88 8.06 450.73 8.06 451.96 0 435.65 0 436.88 8.06"/><rect class="cls-3" x="437.9" y="8.07" width="11.8" height="1.66" transform="translate(887.61 17.79) rotate(-180)"/><path class="cls-4" d="M409,76.37l24-64.24h22.76l24,64.24H458.26l-2.76-8.54H433.3l-2.85,8.54Zm29.18-23.86h12.57l-4.5-13.67a48.54,48.54,0,0,1-1.83-8.26,83.61,83.61,0,0,1-1.74,8.26Z"/><path class="cls-5" d="M337.3,31.52a77.22,77.22,0,0,0,5.34,6.17.67.67,0,0,1,0,.94l-3.82,4.88c-1,1.28-3.48,3.43-2.89,5.07s2.2,3.16,3.16,4.54l3.62,5.18a.71.71,0,0,1-.11.87c-1.3,1.07-2.56,2.19-3.76,3.37a18.89,18.89,0,0,0-2,2.09l-.48.54c-.72.94-.72,1.74,0,2.39a31.07,31.07,0,0,0,3.2,4.27l3.21,4.26a.79.79,0,0,1-.12.92c-2.2,2.65-4.29,5.71-6.82,8a.81.81,0,0,1,.22.23c1.43,2.2,2.79,4.43,4.1,6.7.72,1.25,3,.08,3.66,1.34l4.69-.34V31.52Z"/><path class="cls-6" d="M352.73,76.37V12.13h29.82a43.54,43.54,0,0,1,10.1,1.1,29.86,29.86,0,0,1,8.62,3.58,17,17,0,0,1,6.33,7.07,24.16,24.16,0,0,1,2.3,10.92q0,13.67-11,19.18L415.4,76.37H392.1l-13.22-19h-4.95v19Zm21.2-34.87h8.16a6.69,6.69,0,0,0,4.78-1.65,5.81,5.81,0,0,0,1.74-4.41,5.78,5.78,0,0,0-1.74-4.4,6.7,6.7,0,0,0-4.78-1.66h-8.16Z"/><rect class="cls-7" x="331.53" y="79.48" width="146.91" height="5.81"/><rect class="cls-8" x="331.14" y="76.27" width="147.3" height="3.21" transform="translate(809.59 155.74) rotate(-180)"/><path class="cls-4" d="M437,84.86a11,11,0,1,0,11-11A11,11,0,0,0,437,84.86Zm3.61,0A7.42,7.42,0,1,1,448,92.28,7.42,7.42,0,0,1,440.61,84.86Z"/><path class="cls-6" d="M441.28,80.06a8.4,8.4,0,0,1,1.33-1.46l4,4V76.71a8.59,8.59,0,0,1,1.45-.13l.52,0v6l4.38-4.38a8.7,8.7,0,0,1,1.44,1.34L449.94,84h6.33c0,.3.05.6.05.9a7.48,7.48,0,0,1-.08,1.07h-6.3l4.35,4.35a8,8,0,0,1-1.46,1.33l-4.28-4.29v5.81l-.52,0a8.59,8.59,0,0,1-1.45-.13v-5.7L442.7,91.2a8,8,0,0,1-1.35-1.44l3.84-3.83h-5.37a7.48,7.48,0,0,1-.08-1.07c0-.3,0-.6.05-.9h5.4Z"/><path class="cls-9" d="M439.74,84.86A8.29,8.29,0,1,0,448,76.58,8.29,8.29,0,0,0,439.74,84.86Zm.87,0A7.42,7.42,0,1,1,448,92.28,7.42,7.42,0,0,1,440.61,84.86Z"/><circle class="cls-6" cx="448.03" cy="84.86" r="3.69"/><circle class="cls-10" cx="448.03" cy="84.86" r="2.01"/><path class="cls-4" d="M405.18,84.86a11,11,0,1,0,11-11A11,11,0,0,0,405.18,84.86Zm3.61,0a7.42,7.42,0,1,1,7.42,7.42A7.42,7.42,0,0,1,408.79,84.86Z"/><path class="cls-6" d="M409.46,80.06a8.4,8.4,0,0,1,1.33-1.46l4,4V76.71a8.59,8.59,0,0,1,1.45-.13l.52,0v6l4.38-4.38a8.7,8.7,0,0,1,1.44,1.34L418.12,84h6.33c0,.3.05.6.05.9a7.48,7.48,0,0,1-.08,1.07h-6.3l4.35,4.35A8,8,0,0,1,421,91.61l-4.28-4.29v5.81l-.52,0a8.59,8.59,0,0,1-1.45-.13v-5.7l-3.88,3.88a8,8,0,0,1-1.35-1.44l3.84-3.83H408a7.48,7.48,0,0,1-.08-1.07c0-.3,0-.6.05-.9h5.4Z"/><path class="cls-9" d="M407.92,84.86a8.29,8.29,0,1,0,8.29-8.28A8.29,8.29,0,0,0,407.92,84.86Zm.87,0a7.42,7.42,0,1,1,7.42,7.42A7.42,7.42,0,0,1,408.79,84.86Z"/><circle class="cls-6" cx="416.21" cy="84.86" r="3.69"/><circle class="cls-10" cx="416.21" cy="84.86" r="2.01"/><path class="cls-4" d="M371.23,84.86a11,11,0,1,0,11-11A11,11,0,0,0,371.23,84.86Zm3.61,0a7.42,7.42,0,1,1,7.42,7.42A7.42,7.42,0,0,1,374.84,84.86Z"/><path class="cls-6" d="M375.52,80.06a8,8,0,0,1,1.32-1.46l4,4V76.71a8.59,8.59,0,0,1,1.45-.13l.52,0v6l4.38-4.38a8.7,8.7,0,0,1,1.44,1.34L384.17,84h6.33c0,.3.05.6.05.9a7.48,7.48,0,0,1-.08,1.07h-6.3l4.35,4.35a8,8,0,0,1-1.46,1.33l-4.28-4.29v5.81l-.52,0a8.59,8.59,0,0,1-1.45-.13v-5.7l-3.88,3.88a8.38,8.38,0,0,1-1.35-1.44l3.84-3.83h-5.37a7.48,7.48,0,0,1-.08-1.07c0-.3,0-.6,0-.9h5.4Z"/><path class="cls-9" d="M374,84.86a8.29,8.29,0,1,0,8.29-8.28A8.29,8.29,0,0,0,374,84.86Zm.87,0a7.42,7.42,0,1,1,7.42,7.42A7.42,7.42,0,0,1,374.84,84.86Z"/><circle class="cls-6" cx="382.26" cy="84.86" r="3.69"/><circle class="cls-10" cx="382.26" cy="84.86" r="2.01"/><path class="cls-4" d="M339.41,84.86a11,11,0,1,0,11-11A11,11,0,0,0,339.41,84.86Zm3.61,0a7.42,7.42,0,1,1,7.42,7.42A7.42,7.42,0,0,1,343,84.86Z"/><path class="cls-6" d="M343.7,80.06A8,8,0,0,1,345,78.6l4,4V76.71a8.59,8.59,0,0,1,1.45-.13l.52,0v6l4.38-4.38a8.7,8.7,0,0,1,1.44,1.34L352.35,84h6.33c0,.3.05.6.05.9a7.48,7.48,0,0,1-.08,1.07h-6.3l4.35,4.35a8,8,0,0,1-1.46,1.33L351,87.32v5.81l-.52,0A8.59,8.59,0,0,1,349,93v-5.7l-3.88,3.88a8.38,8.38,0,0,1-1.35-1.44l3.84-3.83h-5.37a7.48,7.48,0,0,1-.08-1.07c0-.3,0-.6.05-.9h5.4Z"/><path class="cls-9" d="M342.15,84.86a8.29,8.29,0,1,0,8.29-8.28A8.29,8.29,0,0,0,342.15,84.86Zm.87,0a7.42,7.42,0,1,1,7.42,7.42A7.42,7.42,0,0,1,343,84.86Z"/><circle class="cls-6" cx="350.44" cy="84.86" r="3.69"/><circle class="cls-10" cx="350.44" cy="84.86" r="2.01"/><path class="cls-4" d="M465.55,89.44A6.45,6.45,0,1,0,472,83,6.45,6.45,0,0,0,465.55,89.44Zm2.11,0A4.34,4.34,0,1,1,472,93.78,4.33,4.33,0,0,1,467.66,89.44Z"/><path class="cls-6" d="M468.05,86.64a5.32,5.32,0,0,1,.78-.86l2.32,2.32V84.68a4.71,4.71,0,0,1,.85-.08h.3V88.1l2.56-2.56a4.5,4.5,0,0,1,.84.79l-2.59,2.59h3.7a4.53,4.53,0,0,1,0,.52c0,.22,0,.42,0,.63h-3.69l2.55,2.54a5.25,5.25,0,0,1-.85.78l-2.51-2.51v3.4H472a4.71,4.71,0,0,1-.85-.08V90.88l-2.27,2.27a4.83,4.83,0,0,1-.79-.84l2.25-2.24H467.2a4.34,4.34,0,0,1-.05-.63,4.53,4.53,0,0,1,0-.52h3.16Z"/><path class="cls-9" d="M467.15,89.44A4.85,4.85,0,1,0,472,84.6,4.85,4.85,0,0,0,467.15,89.44Zm.51,0A4.34,4.34,0,1,1,472,93.78,4.33,4.33,0,0,1,467.66,89.44Z"/><circle class="cls-6" cx="472" cy="89.44" r="2.16"/><circle class="cls-10" cx="472" cy="89.44" r="1.18"/><path class="cls-11" d="M480.6,90.62a11.16,11.16,0,0,0,2.77.38l-7.48-14.73H477l9.29,14.54a8.81,8.81,0,0,0,2.85-.37L477.53,76.27h.91l16.14,15.34c-6.32,4.28-16.14,1.54-16.14,1.54l-3.95-16.88h.75Z"/><rect class="cls-7" x="459.41" y="77.04" width="21.94" height="6.23" transform="translate(940.75 160.31) rotate(-180)"/><rect class="cls-8" x="479.85" y="75.65" width="1.49" height="9.46" transform="translate(961.2 160.76) rotate(-180)"/><rect class="cls-7" x="459.41" y="76.37" width="7.09" height="8.03" transform="translate(925.9 160.76) rotate(-180)"/><rect class="cls-12" x="377.54" y="89.69" width="81.06" height="0.9" transform="translate(836.14 180.27) rotate(-180)"/><circle class="cls-12" cx="377.07" cy="90.07" r="1.04"/><rect class="cls-8" x="393.29" y="88.21" width="11.89" height="3.72" transform="translate(798.47 180.15) rotate(-180)"/><polygon class="cls-12" points="458.55 90.47 471.74 85.54 471.3 84.86 458.11 89.8 458.55 90.47"/><circle class="cls-12" cx="471.52" cy="85.35" r="0.61"/><path class="cls-6" d="M56.35,63.81A10.5,10.5,0,0,1,59.42,66c1.08.88.7,1.88,1.29,3.2l0,.09a8.34,8.34,0,0,1,.22,3.5,17.27,17.27,0,0,1-.8,2.91,10.36,10.36,0,0,1,.23,3.67c0,.36-.44,2.86-.44,2.86-.33,1.24.6,1.55.6,1.55a11.23,11.23,0,0,1,2.32.8,5.14,5.14,0,0,1,1.6,1.89A10.11,10.11,0,0,0,67,88.72l.25.1c.92.36.69.8.69.8s.54.72.54.72a16.72,16.72,0,0,0,.93,1.7A5.65,5.65,0,0,1,70,93.46v.05l.75.16,1.16.49.62-.18.8.1a2.44,2.44,0,0,0,1,.11,3.17,3.17,0,0,1,1.54.18,1,1,0,0,0,1.09.31l.43-.17v-63H56.16V63.64Z"/><path class="cls-6" d="M57.74,93.05c.08-.18.57,0,.7.13s.05-.41,1.16-.13a1.34,1.34,0,0,1,.65-.33,10.92,10.92,0,0,1,1.62,0,6.85,6.85,0,0,0,1.5-.18c.39-.11.26-.44.95.18a1.38,1.38,0,0,1,1.27.22c.06-.29.1-.56.1-.56a2.07,2.07,0,0,0-.64-1.65c-.29-.7-2.51-1.89-2.51-1.89a11.72,11.72,0,0,0-3.38-1.18l-.13,0A3.55,3.55,0,0,1,57,86.73a1.65,1.65,0,0,1-.81-.37V93c.31.09.66.19.89.23C57.48,93.31,57.66,93.23,57.74,93.05Z"/><path class="cls-13" d="M329.34,93.06a27.73,27.73,0,0,0,6.26-.76,3.46,3.46,0,0,0,1.15-.59c-1.13-1.92-2.29-3.83-3.5-5.7a.62.62,0,0,1,.12-.85.59.59,0,0,1-.18-.83,69.42,69.42,0,0,1,6.4-7.89l-4-5.39c-.9-1.22-3-3.09-3.06-4.68s1.81-2.88,2.71-3.81a57,57,0,0,1,4.35-4l-4.17-6c-.86-1.23-2.81-3.08-2.78-4.67s1.85-3,2.7-4.1l4.45-5.61c-1.67-2.3-3.59-4.47-5.48-6.63h-8.55V92.93C327,93,328.31,93.06,329.34,93.06Z"/><path class="cls-6" d="M271.89,90a30,30,0,0,0,4.43,2.54c.37-.58,1-1.44,2.55-.23,2.16,1.73,3.89-1.84,5.62-1.62a7.85,7.85,0,0,1,3.89,1.51c.54.54,3.13.65,3.13.65a3.29,3.29,0,0,1,2.38,0c1,.54,2.06-1.4,3.14-1.19a13.6,13.6,0,0,1,3,1.41s1.51-2.16,2.49-2c.82.18,3.62,1.13,5.59,1.62A30.78,30.78,0,0,0,313,90a20.25,20.25,0,0,0,6.79-8.26,29,29,0,0,0,2.48-12.43V30.05H301.16V68.32q0,8.43-8.72,8.44t-8.62-8.44V30.05h-21.2V69.33a29,29,0,0,0,2.48,12.43A20.25,20.25,0,0,0,271.89,90Z"/><path class="cls-6" d="M213.27,95.18c1-.05,1.74-.12,1.74-.12l6.16-1.18,30.25-2.27s3.66,1.39,5.65,2.09l4.73-4.19L256,83.73q5.79-8.34,5.79-20.09,0-14.6-9.09-24.09T227,30.05q-16.61,0-25.69,9.5t-9.09,24.09q0,14.58,9.09,24.08A28.84,28.84,0,0,0,213.27,95.18Zm3.84-42.51a14.19,14.19,0,0,1,19.73,0q3.66,4,3.67,11a16.11,16.11,0,0,1-.65,4.86l-6-6L223.35,73l5.41,5.41a12.91,12.91,0,0,1-1.83.09,12.77,12.77,0,0,1-9.82-3.94q-3.68-3.94-3.67-10.92T217.11,52.67Z"/><path class="cls-6" d="M130,92.18c.76-.11,1.95-1.51,5.4,1s6.49-1.14,7.68-1a16.47,16.47,0,0,1,4,1.73s.71-.38,3.3.7l2.44-7.32H175l2.39,7.42a5.59,5.59,0,0,1,5-.31,15.62,15.62,0,0,0,5.19.1c2.7-.43,6.59.76,8.54.76.74,0,1.82,0,2.88-.07l-23.72-63.6H152.51L129.8,92.2Zm32.18-34A77.69,77.69,0,0,0,163.88,50a47.22,47.22,0,0,0,1.84,8.26l4.5,13.68H157.65Z"/><path class="cls-6" d="M82.2,94.56c1.19,0,11,.29,11,.29S96,92.69,102.77,93V79h6.88q28.82,0,28.82-23.67T109.65,31.52H81.58V94.45A2,2,0,0,0,82.2,94.56ZM102.77,49h6.7q8,0,8,6.33t-8,6.24h-6.7Z"/><path class="cls-6" d="M249.59,100.34l-6.24-6.24s-8-11-13-9.6c-10.67,3-22.94,9.56-29,3.22s-9.09-14.36-9.09-24.08,3-17.76,9.09-24.09S216,30.05,227,30.05s19.64,3.17,25.69,9.5,9.09,14.36,9.09,24.09q0,11.74-5.79,20.09l5.79,5.78ZM217.11,74.56a12.77,12.77,0,0,0,9.82,3.94,12.91,12.91,0,0,0,1.83-.09L223.35,73,233.9,62.54l6,6a16.11,16.11,0,0,0,.65-4.86q0-7-3.67-11a14.19,14.19,0,0,0-19.73,0q-3.68,4-3.67,11T217.11,74.56Z"/><path class="cls-6" d="M37.17,57.64l-.12-.09Z"/><path class="cls-6" d="M32.64,61.22a6,6,0,0,1-.19-1.28l-.27-.23a6.08,6.08,0,0,0,.17,1.76C32.32,61.22,32.64,61.22,32.64,61.22Z"/><path class="cls-6" d="M35.12,59.75c-.35.24-.85.65-1.38,1.07A16,16,0,0,1,32,62.11l0,.07a15.57,15.57,0,0,0,1.73-1.3c.51-.4,1-.83,1.37-1.06a13.71,13.71,0,0,1,2.65-1.28l0-.07A14,14,0,0,0,35.12,59.75Z"/><path class="cls-6" d="M34.15,57a2.43,2.43,0,0,0-1.83,2.46l.13,0A2.88,2.88,0,0,1,34.29,57a3,3,0,0,1,2.76.51A2.92,2.92,0,0,0,34.15,57Z"/><path class="cls-6" d="M8.37,89.31c-.41.26-.62-.28-1,.62a4.85,4.85,0,0,0,.73,2.23,6.22,6.22,0,0,1,.82.09l2.61,0A3.54,3.54,0,0,1,12.71,92a7.5,7.5,0,0,0,1.55,0c.18,0,.46-.36,1.29.23a2.33,2.33,0,0,0,1.83.31,4.05,4.05,0,0,1,.95.42s.24-.13,1.17.33-.42.65,1.36.39a4.45,4.45,0,0,1,1,.31,11.55,11.55,0,0,0,2-.13s1-.65,1,.08A2.44,2.44,0,0,1,26.77,94,3.81,3.81,0,0,0,28,94a12,12,0,0,1,2,.18c.46,0,1.5,0,1.5,0a9.89,9.89,0,0,1,1.49.15,7,7,0,0,0,1.53,0l1-.2A3.06,3.06,0,0,1,36,94h.06l.23,0a3,3,0,0,0,1.08-.28,11.94,11.94,0,0,1,1.68-1.34s.75-.29.85-1.65a.41.41,0,0,1,0-.11c.09-1.45,0-5.21,0-5.21,0-.67.26-2.61.26-2.61a7.8,7.8,0,0,1-.2-1.36,2.12,2.12,0,0,1,1.36-2.07c.3-.33,1.34-1.74,1.62-2.1H32.58l-.85.72-1.2,1.28c-.4.31-.17.6-.17.6a.76.76,0,0,1,.41,1.08.57.57,0,0,0-.33.56,9.21,9.21,0,0,1-.43.91c-.2.27-.73.27-.73.27-.14.55-.62.16-.62.16,0,.21-.35.37-.58.41a.7.7,0,0,1-.36-.12,1.66,1.66,0,0,1-1.08.25,1.12,1.12,0,0,1-.56.43c-.13,0-.44-.24-.44-.24-.43.55-.72.62-.78.49s-.19-.49-.23-.23a.24.24,0,0,1,0,.08.77.77,0,0,1-.25.34,1.17,1.17,0,0,1-.66.29c-.27,0-.39-.54-.39-.54l.45-.1,0-.06L8.62,88.54C8.83,88.59,8.71,89.1,8.37,89.31Z"/><path class="cls-6" d="M0,95.14a.6.6,0,0,1,.16.08,11.43,11.43,0,0,1,1.48-.52s0-.41.28-.46.65-.78.93-.78S5.48,93,5.48,93a2.34,2.34,0,0,1,.92-.57,16,16,0,0,1-1.49-2.86,2.88,2.88,0,0,1-.2-1.81s-.75-4.8.59-7.38c0,0,1.32-2.68.83-.36,0,0-.16,1.25-.25,2.37a9.45,9.45,0,0,0,.76,4.73s.18.21,1.06.15l-.64,0s-1,.19-1.32-1.2a2.81,2.81,0,0,0,.39,1.7,10.33,10.33,0,0,1,1.59,0l0-.2,16.4-5.1.09-.41c0-.24.4-.38.55-.43a.85.85,0,0,1-.11-.26.22.22,0,0,1,0-.08c-.06-.44.44-1.07.44-1.07a11.93,11.93,0,0,1,1.24-1.39c.23-.27,1.2-1.49,1.2-1.49a7.24,7.24,0,0,1,1.64-1.45,8.74,8.74,0,0,1,3.94-4.66c.35-.83,1.35-2.56,1.35-2.56a1.94,1.94,0,0,0,.54-.85,16,16,0,0,1,.42-2.27l-.08-.06c-.28-.4-.14-.41-.22-.51s-.18.09-.43.09-.14-.22-.14-.22c.23-.21-.06-.23-.06-.23-.54.29-.62,0-.62,0,.16-.4-.21-.21-.21-.21-.35.23-.5,0-.5,0C32.8,64.18,33,63,33,63c-.17,0-.36-.33-.36-.33-.44.06-.62,0-.7-.08l-.27.18a.23.23,0,0,1-.37-.06l-.1-.83.62-.27-.29-1.14.28,1.11c-1.08.59-1.42.44-1.42.44,0-.23-.46-1.52-.46-1.52,0-.18-.31-.57-.31-.57-.26-.83.38,0,.38,0s.31.13,0-.11.46-.49.46-.49c1-.38.7.18.7.18l.21.24c.43-2.56,2-2.89,2-2.89,3-1.42,4.57,1.57,4.57,1.57.51-.21.26.31,0,.46a2.12,2.12,0,0,1,.12.66s0,.13.1,0,.35.09.35.09c.12.21.15.2.29.16a1.67,1.67,0,0,1,.48-.11c.77-.38,2.62-1,2.62-1A6,6,0,0,1,43,58.38L53,45V31.52H1.47V50.06H23.86L0,82.26Z"/><path class="cls-6" d="M7.54,92.17h.3c-.53-.92-1-1.93-1-1.93A5.46,5.46,0,0,0,7.54,92.17Z"/><path class="cls-6" d="M30.33,60.22l-.08.07a.77.77,0,0,0,.25,0,1.13,1.13,0,0,0,.74-.34l-.12,0A.7.7,0,0,1,30.33,60.22Z"/><path class="cls-6" d="M35.45,59.93c-1,.62-1.73,1.34-2.4,1.84h0Z"/><path class="cls-6" d="M50.59,77.88l-3.84,2.5c-.8.72-.93.39-.93.39L44,82.21c0,.18.23,1.63.23,1.63.46,2.29,0,3.15,0,3.15a17.16,17.16,0,0,0-1.13,3A6.61,6.61,0,0,0,43,92.87a1,1,0,0,0,.25.57h0a6.57,6.57,0,0,1,1.53,0c.38.13,1-.31,1.13-.07s1,.2,1.27.07.2.06.46.06.59-.42.85-.42a2.19,2.19,0,0,1,.62.13c.08,0,.18-.57.7-.15s.93-.44,1.34-.39a1.86,1.86,0,0,1,.93.36c.13.13.75.16.75.16a.78.78,0,0,1,.57,0c.2.11.41-.22.64-.28V77.22H51.66Z"/><path class="cls-6" d="M32.41,57.69A3.21,3.21,0,0,0,31.75,59s0,.37,0,.53L32,59a3.12,3.12,0,0,1,1-1.66,3.61,3.61,0,0,1,2-.72A3.49,3.49,0,0,0,32.41,57.69Z"/><path class="cls-6" d="M220.16,103.84q1,.06,1,1a1.09,1.09,0,0,1-.8,1.24.72.72,0,0,1-.44.05,184.13,184.13,0,0,0-25.22.94q-9.84,35.7-9.09,63.53a1.15,1.15,0,0,1-.94,1.26c-.66.19-1.09,0-1.29-.56a1.23,1.23,0,0,1-.05-.35q-.73-28.08,9-63.59a188.68,188.68,0,0,0-24.23,4.5.9.9,0,0,1-1.06-.29,1.28,1.28,0,0,1,.72-2,188.85,188.85,0,0,1,25.21-4.65.87.87,0,0,1,.89-.74,1.16,1.16,0,0,1,1,.54A193.45,193.45,0,0,1,220.16,103.84Z"/><path class="cls-6" d="M216.08,140.28a1.1,1.1,0,0,1,.84.27,1.17,1.17,0,0,1,.42.8,1,1,0,0,1-.25.81,8.11,8.11,0,0,1-.57.72c-.21.25-.51.58-.89,1s-.76.8-1.16,1.16-.85.77-1.36,1.21-1,.84-1.48,1.19a13.25,13.25,0,0,1-1.56,1,8.86,8.86,0,0,1-1.58.67,5,5,0,0,1-1.53.2,4.31,4.31,0,0,1-1.49-.32q-1.83-.9-1.23-5.29-4.16,6.18-7.12,6.18a3.24,3.24,0,0,1-.8-.1,2.67,2.67,0,0,1-1.68-1.59,4.49,4.49,0,0,1-.34-1.9,12,12,0,0,1,.27-2.45c.18-.85.39-1.69.64-2.49s.54-1.62.87-2.43.59-1.44.79-1.9l.54-1.24a1.06,1.06,0,0,1,.65-.59,1.17,1.17,0,0,1,.88.05,1.05,1.05,0,0,1,.6.64,1.19,1.19,0,0,1,0,.89,42.4,42.4,0,0,0-2.33,6.13c-.62,2.15-.75,3.61-.39,4.4a.3.3,0,0,0,.25.25c.85.27,2.28-1,4.27-3.73a59.32,59.32,0,0,0,5.52-9.42,1,1,0,0,1,.64-.59,1.21,1.21,0,0,1,.86,0,1.15,1.15,0,0,1,.62.59,1,1,0,0,1,0,.87,56.42,56.42,0,0,0-2.15,7.52c-.48,2.34-.55,3.72-.22,4.15.56.26,1.39.07,2.5-.57a17.62,17.62,0,0,0,3.28-2.5,37.29,37.29,0,0,0,3-3.11A1.07,1.07,0,0,1,216.08,140.28Z"/><path class="cls-6" d="M227.57,135.09a1.11,1.11,0,0,1,.79.42,1.12,1.12,0,0,1,.25.84,1.06,1.06,0,0,1-.44.77,1.17,1.17,0,0,1-.84.25c-1.52-.2-3,.47-4.58,2a21,21,0,0,0-4,5.88,50.6,50.6,0,0,0-2.94,7.89,1,1,0,0,1-1,.84.19.19,0,0,1-.1.05,1.06,1.06,0,0,1-1-.64q-1.19-2.43,4-23.29a1,1,0,0,1,.52-.69,1.08,1.08,0,0,1,.87-.13,1.13,1.13,0,0,1,.69.52,1.19,1.19,0,0,1,.15.89q-1.72,7-3,13a22,22,0,0,1,4.87-6.61A7.1,7.1,0,0,1,227.57,135.09Z"/><path class="cls-6" d="M243,139.67a1.16,1.16,0,0,1,.87.19,1.12,1.12,0,0,1,.25,1.61c-.53.73-1.13,1.5-1.81,2.32s-1.6,1.86-2.79,3.09a17.38,17.38,0,0,1-3.76,3,7.3,7.3,0,0,1-3.61,1.16,4.37,4.37,0,0,1-1.93-.44,3.23,3.23,0,0,1-1.36-2.48,12.42,12.42,0,0,1,.23-4.25c.33-1.61.67-3,1-4.3s.77-2.5,1.23-3.76a1.06,1.06,0,0,1,.57-.64,1.12,1.12,0,0,1,.86-.05,1,1,0,0,1,.5.35,1.25,1.25,0,0,1,.25.52,1.47,1.47,0,0,1-.05.61,52,52,0,0,0-1.71,5.67,24.4,24.4,0,0,0-.72,4.32,3.51,3.51,0,0,0,.3,2q1.63.89,4.9-1.9a37.79,37.79,0,0,0,6-6.56A1.12,1.12,0,0,1,243,139.67Zm-10.85-8.29a1,1,0,0,1-1.09-.79.93.93,0,0,1,0-.86,1.35,1.35,0,0,1,.67-.62.89.89,0,0,0,.32-.1l.47-.2.47-.2.57-.24.89,2.17a20.23,20.23,0,0,1-2,.74A.6.6,0,0,1,232.17,131.38Z"/><path class="cls-6" d="M282.65,123.4a1.18,1.18,0,0,1,1.51.64.94.94,0,0,1,0,.82q-.75,1.88-4.9,3.19a27.83,27.83,0,0,1-10.53.76c-1.52-.13-2.95-.25-4.3-.34q-2.48,4.74-4.89,9a12.63,12.63,0,0,1-.94,1.93,2.5,2.5,0,0,0-.1.4,34.21,34.21,0,0,0-.45,8.48c.2,2.88.68,4.64,1.44,5.26a1.24,1.24,0,0,0,1,.35,4.23,4.23,0,0,0,2.23-1.31,16,16,0,0,0,1.88-2.15,1,1,0,0,1,.71-.47,1.24,1.24,0,0,1,.87.17,1.13,1.13,0,0,1,.5.72,1.2,1.2,0,0,1-.15.87c-.14.19-.28.4-.45.61s-.45.56-.86,1a15.89,15.89,0,0,1-1.24,1.23,8.17,8.17,0,0,1-1.48,1,4.93,4.93,0,0,1-1.71.57,2.7,2.7,0,0,1-.49,0,3.45,3.45,0,0,1-2.33-.89q-1.53-1.34-2-4.89a35.57,35.57,0,0,1-.12-7.62,34.37,34.37,0,0,1-5.64,4.21,6.06,6.06,0,0,1-.49,5.93,14.23,14.23,0,0,1-4.75,4.33,10.9,10.9,0,0,1-5.24,1.65,4,4,0,0,1-1.14-.14,2.73,2.73,0,0,1-2.27-2.48,3.82,3.82,0,0,1,.37-2.05,7.9,7.9,0,0,1,1.11-1.78,11.41,11.41,0,0,1,2.08-1.78c.95-.67,1.75-1.21,2.39-1.61l2.9-1.73c1.05-.59,1.73-1,2-1.18a36.56,36.56,0,0,0-2.37-3.37c-.56-.72-1-1.27-1.24-1.65s-.52-.82-.79-1.31a3,3,0,0,1-.39-1.34,5.49,5.49,0,0,1,.34-2.64,6.09,6.09,0,0,1,1.39-2.15,13.68,13.68,0,0,1,1.78-1.54,9.67,9.67,0,0,1,1.95-1.08c.71-.3,1.21-.51,1.51-.62a3.4,3.4,0,0,1,.74-.22,1,1,0,0,1,.87.09,1.14,1.14,0,0,1,.54.7,1.1,1.1,0,0,1-.12.86,1.27,1.27,0,0,1-.7.57c-.13,0-.36.11-.69.22s-.84.34-1.53.67a9.63,9.63,0,0,0-1.85,1.14,6,6,0,0,0-1.44,1.68,3.61,3.61,0,0,0-.52,2.17,11.13,11.13,0,0,0,2,3.07,37.72,37.72,0,0,1,2.52,3.51q5.3-3.31,7.27-6.43,1.14-5.19,2.52-10.38c-1.88-.07-3.6-.11-5.17-.12s-2.86,0-3.9.07-1.95.14-2.72.22a11.56,11.56,0,0,0-1.83.32,8.06,8.06,0,0,0-1,.38,2.81,2.81,0,0,0-.57.32,1,1,0,0,1-.79.34,1.08,1.08,0,0,1-.84-.39,1.22,1.22,0,0,1-.3-.82,1.11,1.11,0,0,1,.35-.81q2.67-2.53,17.45-1.79,4.26-15.12,7.72-17.4a2.53,2.53,0,0,1,2.07-.44,2.22,2.22,0,0,1,1.59,1.28q1.38,3.16-5.05,16.17c-.06.17-.18.43-.34.79l3.36.3a28.82,28.82,0,0,0,4.67.1,30.45,30.45,0,0,0,3.59-.45,12.67,12.67,0,0,0,2.57-.74,11.16,11.16,0,0,0,1.61-.82A1.71,1.71,0,0,0,282,124,1.11,1.11,0,0,1,282.65,123.4ZM247.8,151.61a3.6,3.6,0,0,0,.34-3.37c-.62.4-1.23.76-1.83,1.09l-2,1.21c-.47.28-1.07.65-1.81,1.12a15.27,15.27,0,0,0-1.68,1.16c-.38.31-.77.67-1.19,1.06a3.5,3.5,0,0,0-.84,1.14,2.17,2.17,0,0,0-.17,1,.56.56,0,0,0,.49.49c1,.26,2.4-.08,4.23-1A12.43,12.43,0,0,0,247.8,151.61Zm12.75-20.77c.43-.76.88-1.6,1.34-2.52a3.69,3.69,0,0,0-.64,0C261,129.22,260.75,130.08,260.55,130.84Zm8-20.47q-2.67,1.72-6.67,15.62c.26,0,.64,0,1.14.05q2.07-4.1,3.51-7.46a47.6,47.6,0,0,0,2-5.59c.41-1.48.47-2.42.17-2.82C268.79,110.2,268.73,110.27,268.56,110.37Z"/><path class="cls-6" d="M278.33,139.67a1.14,1.14,0,0,1,.86.19,1.05,1.05,0,0,1,.47.74,1.09,1.09,0,0,1-.22.87c-.53.73-1.13,1.5-1.8,2.32s-1.61,1.86-2.8,3.09a17.33,17.33,0,0,1-3.75,3,7.33,7.33,0,0,1-3.61,1.16,4.31,4.31,0,0,1-1.93-.44,3.2,3.2,0,0,1-1.36-2.48,12.39,12.39,0,0,1,.22-4.25c.33-1.61.68-3,1-4.3s.77-2.5,1.23-3.76a1.06,1.06,0,0,1,.57-.64,1.14,1.14,0,0,1,.87-.05,1,1,0,0,1,.49.35,1.14,1.14,0,0,1,.25.52,1.32,1.32,0,0,1-.05.61,54.32,54.32,0,0,0-1.71,5.67,23.3,23.3,0,0,0-.71,4.32,3.44,3.44,0,0,0,.29,2q1.63.89,4.9-1.9a37.4,37.4,0,0,0,6-6.56A1.14,1.14,0,0,1,278.33,139.67Zm-10.85-8.29a1,1,0,0,1-1.09-.79.93.93,0,0,1,0-.86,1.35,1.35,0,0,1,.67-.62.84.84,0,0,0,.32-.1l.47-.2a5.11,5.11,0,0,0,.47-.2l.57-.24.89,2.17a19.26,19.26,0,0,1-2,.74A.57.57,0,0,1,267.48,131.38Z"/><path class="cls-6" d="M293.06,140.11a1,1,0,0,1,.82.3,1.12,1.12,0,0,1,.37.79,1.08,1.08,0,0,1-.27.81c-.2.24-.54.59-1,1.07s-1.31,1.24-2.52,2.3-2.38,2-3.53,2.84a23.83,23.83,0,0,1-3.88,2.27,9.1,9.1,0,0,1-3.79,1,4.17,4.17,0,0,1-2.62-.84A4.22,4.22,0,0,1,275,147.8a7.57,7.57,0,0,1,.35-3.24,16,16,0,0,1,1.5-3.46c.65-1.1,1.16-1.95,1.54-2.52a15.17,15.17,0,0,1,1.06-1.46c1.32-1.68,2.54-2.33,3.66-1.93s1.5,1.34,1.53,3a1.2,1.2,0,0,1-.32.84,1.06,1.06,0,0,1-.82.34,1.22,1.22,0,0,1-.59-.14,1.59,1.59,0,0,1-.42-.4,1,1,0,0,1-.17-.59,4.68,4.68,0,0,0-.05-.7,6.4,6.4,0,0,0-1,1,31,31,0,0,0-2.77,4.53,8.23,8.23,0,0,0-1.19,4.42,1.79,1.79,0,0,0,.75,1.34,2.35,2.35,0,0,0,2.22.24,13,13,0,0,0,3.07-1.33,29.86,29.86,0,0,0,3.38-2.3c1.17-.91,2.23-1.79,3.17-2.65s1.72-1.63,2.35-2.32A1.22,1.22,0,0,1,293.06,140.11Z"/><path class="cls-6" d="M310.67,142.58l.47-.07.37.29a1.24,1.24,0,0,1,.44.77,1.11,1.11,0,0,1-.22.87c-.23.29-.5.62-.82,1s-.81.89-1.51,1.58a21.23,21.23,0,0,1-2.07,1.83,11.17,11.17,0,0,1-2.38,1.38,6.16,6.16,0,0,1-2.52.6,4.1,4.1,0,0,1-2.17-.6,3.51,3.51,0,0,1-1.53-3.21q-3.32,4.05-6.29,3.26a3.25,3.25,0,0,1-2.47-3.41,9.71,9.71,0,0,1,1.36-4.6,21.28,21.28,0,0,1,3.39-4.75,8.64,8.64,0,0,1,3.56-2.52,3,3,0,0,1,2.52.25,3.53,3.53,0,0,1,1.14,1.19v-.1a1.38,1.38,0,0,1,.67-.57,1,1,0,0,1,.84,0,1.25,1.25,0,0,1,.61.65.89.89,0,0,1,0,.84q-.69,1.72-1.53,3.51a25.36,25.36,0,0,0-1.41,4.84c-.21,1.36-.1,2.23.32,2.62a1.86,1.86,0,0,0,1.69.2,8.39,8.39,0,0,0,1.92-.86,13.21,13.21,0,0,0,2-1.49c.67-.61,1.24-1.17,1.7-1.68s.86-1,1.19-1.41A1.23,1.23,0,0,1,310.67,142.58Zm-10.26-2.74c.06-.17.14-.36.24-.59a1.71,1.71,0,0,1-.29-.55,2,2,0,0,0-.8-1.48.3.3,0,0,0-.24-.1,1.63,1.63,0,0,0-.35,0c-1.22.36-2.64,1.7-4.28,4s-2.43,4.21-2.39,5.69a1.11,1.11,0,0,0,.79,1.19c1,.26,2.1-.42,3.43-2.06A34.1,34.1,0,0,0,300.41,139.84Z"/><path class="cls-6" d="M242.87,139.65a1.13,1.13,0,0,1,.85.2,1.1,1.1,0,0,1,.24,1.58c-.52.72-1.11,1.48-1.77,2.29s-1.59,1.83-2.76,3.05a17.12,17.12,0,0,1-3.7,3,7.22,7.22,0,0,1-3.56,1.15,4.24,4.24,0,0,1-1.9-.44,3.21,3.21,0,0,1-1.34-2.44,12.28,12.28,0,0,1,.22-4.19c.32-1.59.66-3,1-4.24s.77-2.47,1.22-3.7a1,1,0,0,1,.56-.64,1.14,1.14,0,0,1,.85-.05,1,1,0,0,1,.49.35,1.22,1.22,0,0,1,.25.51,1.47,1.47,0,0,1,0,.61,47.71,47.71,0,0,0-1.68,5.58,22.58,22.58,0,0,0-.71,4.26,3.41,3.41,0,0,0,.29,1.95c1.07.58,2.68,0,4.83-1.88a37,37,0,0,0,5.89-6.45A1.17,1.17,0,0,1,242.87,139.65Zm-10.7-8.16a1,1,0,0,1-1.07-.78.94.94,0,0,1,0-.85,1.35,1.35,0,0,1,.66-.61.84.84,0,0,0,.32-.1l.46-.19.46-.2,2.11-.88s4.5.27-2.62,3.51A.57.57,0,0,1,232.17,131.49Z"/></g></g></svg>